<svg xmlns="http://www.w3.org/2000/svg" xmlns:xlink="http://www.w3.org/1999/xlink" width="726" zoomAndPan="magnify" viewBox="0 0 544.5 453.749987" height="605" preserveAspectRatio="xMidYMid meet" version="1.2"><defs><clipPath id="77809e7abc"><path d="M 0 0.0820312 L 544 0.0820312 L 544 453.417969 L 0 453.417969 Z M 0 0.0820312 "/></clipPath><clipPath id="18b332391d"><path d="M 0 307.738281 L 415.65625 307.738281 L 415.65625 453.417969 L 0 453.417969 Z M 0 307.738281 "/></clipPath><clipPath id="4116cba42f"><path d="M 355.953125 307.738281 L 21.566406 307.738281 C 9.65625 307.738281 0 317.394531 0 329.304688 L 0 431.539062 C 0 443.449219 9.65625 453.105469 21.566406 453.105469 L 393.554688 453.105469 C 405.464844 453.105469 415.117188 443.449219 415.117188 431.539062 L 415.117188 371.335938 C 415.117188 366.03125 413.164062 360.910156 409.625 356.957031 L 372.027344 314.925781 C 367.933594 310.351562 362.089844 307.738281 355.953125 307.738281 Z M 355.953125 307.738281 "/></clipPath><clipPath id="4839bafb53"><path d="M 0.148438 0.0820312 L 543 0.0820312 L 543 348.199219 L 0.148438 348.199219 Z M 0.148438 0.0820312 "/></clipPath><clipPath id="de2f477af1"><path d="M 459.648438 7.789062 C 455.261719 2.886719 448.992188 0.0820312 442.414062 0.0820312 L 23.273438 0.0820312 C 10.503906 0.0820312 0.148438 10.4375 0.148438 23.207031 L 0.148438 257.527344 C 0.148438 270.300781 10.503906 280.652344 23.273438 280.652344 L 366.898438 280.652344 C 373.476562 280.652344 379.746094 283.457031 384.132812 288.363281 L 430.765625 340.492188 C 435.152344 345.398438 441.421875 348.199219 448.003906 348.199219 L 520.277344 348.199219 C 526.410156 348.199219 532.292969 345.765625 536.628906 341.425781 C 540.964844 337.089844 543.402344 331.207031 543.402344 325.074219 L 543.402344 113.753906 C 543.402344 105.808594 540.472656 98.140625 535.175781 92.21875 Z M 459.648438 7.789062 "/></clipPath></defs><g id="efe07814fd"><g clip-rule="nonzero" clip-path="url(#77809e7abc)"><path style=" stroke:none;fill-rule:nonzero;fill:#ffffff;fill-opacity:1;" d="M 0 0.0820312 L 544 0.0820312 L 544 453.417969 L 0 453.417969 Z M 0 0.0820312 "/></g><g clip-rule="nonzero" clip-path="url(#18b332391d)"><g clip-rule="nonzero" clip-path="url(#4116cba42f)"><path style=" stroke:none;fill-rule:nonzero;fill:#7dcfb6;fill-opacity:1;" d="M 0 307.738281 L 415.089844 307.738281 L 415.089844 453.105469 L 0 453.105469 Z M 0 307.738281 "/></g></g><g clip-rule="nonzero" clip-path="url(#4839bafb53)"><g clip-rule="nonzero" clip-path="url(#de2f477af1)"><path style=" stroke:none;fill-rule:nonzero;fill:#d9b8f3;fill-opacity:1;" d="M 0.148438 0.0820312 L 542.722656 0.0820312 L 542.722656 348.199219 L 0.148438 348.199219 Z M 0.148438 0.0820312 "/></g></g></g></svg>