<svg xmlns="http://www.w3.org/2000/svg" xmlns:xlink="http://www.w3.org/1999/xlink" width="797" zoomAndPan="magnify" viewBox="0 0 597.75 458.999989" height="612" preserveAspectRatio="xMidYMid meet" version="1.2"><defs><clipPath id="db974fa6f4"><path d="M 0 383.761719 L 597 383.761719 L 597 458.730469 L 0 458.730469 Z M 0 383.761719 "/></clipPath><clipPath id="9038aaf03e"><path d="M 565.425781 383.761719 L 13.433594 383.761719 C 6.015625 383.761719 0 389.773438 0 397.191406 L 0 433.441406 C 0 436.746094 1.21875 439.933594 3.421875 442.398438 L 14.023438 454.25 C 16.574219 457.101562 20.214844 458.730469 24.035156 458.730469 L 583.394531 458.730469 C 586.957031 458.730469 590.371094 457.3125 592.890625 454.792969 C 595.410156 452.277344 596.824219 448.859375 596.824219 445.296875 L 596.824219 416.898438 C 596.824219 413.550781 595.574219 410.320312 593.320312 407.847656 L 575.351562 388.140625 C 572.804688 385.351562 569.203125 383.761719 565.425781 383.761719 Z M 565.425781 383.761719 "/></clipPath><clipPath id="9488c5f4ca"><path d="M 27.238281 0.0976562 L 312.117188 0.0976562 L 312.117188 345 L 27.238281 345 Z M 27.238281 0.0976562 "/></clipPath><clipPath id="2d9c0a18b7"><path d="M 118.320312 14.941406 L 105.082031 48.042969 C 101.492188 57.007812 92.8125 62.886719 83.15625 62.886719 L 50.851562 62.886719 C 37.808594 62.886719 27.238281 73.460938 27.238281 86.503906 L 27.238281 321.335938 C 27.238281 334.378906 37.808594 344.953125 50.851562 344.953125 L 288.5 344.953125 C 301.542969 344.953125 312.117188 334.378906 312.117188 321.335938 L 312.117188 23.710938 C 312.117188 10.667969 301.542969 0.0976562 288.503906 0.0976562 L 140.246094 0.0976562 C 130.589844 0.0976562 121.90625 5.976562 118.320312 14.941406 Z M 118.320312 14.941406 "/></clipPath></defs>
<g id="2b385d8bcd">

<g clip-rule="nonzero" clip-path="url(#9488c5f4ca)">
<g clip-rule="nonzero" clip-path="url(#2d9c0a18b7)">
<path style=" stroke:none;fill-rule:nonzero;fill:#7dcfb6;fill-opacity:1;" d="M 27.238281 0.0976562 L 312.117188 0.0976562 L 312.117188 345.070312 L 27.238281 345.070312 Z M 27.238281 0.0976562 "/></g></g></g></svg>